<svg width="1904.0000000000002" height="434" xmlns="http://www.w3.org/2000/svg">

 <g>
  <title>background</title>
  <rect fill="none" id="canvas_background" height="436" width="1906" y="-1" x="-1"/>
 </g>
 <g>
  <title>Layer 1</title>
  <path id="svg_1" fill="#F5F5F5" d="m2150,108l-109.46,30c-109.46,30 -328.37,90 -547.29,114c-218.92,24 -437.83,12 -656.75,-18c-218.917,-30 -437.833,-78 -656.75,-120c-218.9167,-42 -437.833,-78 -547.292,-96l-109.458,-18l0,288l109.458,0c109.459,0 328.3753,0 547.292,0c218.917,0 437.833,0 656.75,0c218.92,0 437.83,0 656.75,0c218.92,0 437.83,0 547.29,0l109.46,0l0,-180z" clip-rule="evenodd" fill-rule="evenodd"/>
  <rect id="svg_2" height="148.935471" width="1912.420437" y="287.993548" x="-0.407581" stroke-width="1.5" fill="#F5F5F5"/>
 </g>
</svg>