<svg width="851.9999999999999" height="849" xmlns="http://www.w3.org/2000/svg">
 <!-- Created with SVG Editor - http://github.com/mzalive/SVG Editor/ -->

 <g>
  <title>background</title>
  <rect fill="#fff" id="canvas_background" height="851" width="854" y="-1" x="-1"/>
  <g display="none" overflow="visible" y="0" x="0" height="100%" width="100%" id="canvasGrid">
   <rect fill="url(#gridpattern)" stroke-width="0" y="1" x="1" height="960" width="1280"/>
  </g>
 </g>
 <g>
  <title>Layer 1</title>
  <g id="svg_5">
   <path id="svg_4" fill="#e5e5e5" d="m37.944048,714.786725c-81.318218,-142.991104 -25.98311,-367.260427 142.241771,-535.056419c191.037324,-190.470658 455.187534,-235.879989 590.054194,-101.421328c0.155556,0.176 0.288889,0.375556 0.506667,0.554222c-26.99111,78.306218 -112.946661,244.921322 -370.595093,335.001317c-236.0191,82.562218 -327.063984,213.824434 -362.207538,300.922208zm770.229297,-587.528416c-20.444443,47.553776 -56.02222,109.699106 -117.328883,170.823992c-61.617775,61.471553 -149.199993,121.845328 -273.252431,165.23777c-251.776877,88.039996 -322.12354,232.164433 -341.751539,302.008874c0.927556,0.933333 1.724889,1.897778 2.626222,2.804444c134.852882,134.462216 399.013314,89.057774 590.035527,-101.44444c169.97777,-169.49777 224.639989,-396.676426 139.671104,-539.430641z"/>
  </g>
 </g>
</svg>