<svg width="70" height="70" xmlns="http://www.w3.org/2000/svg">

 <g>
  <title>background</title>
  <rect fill="none" id="canvas_background" height="402" width="582" y="-1" x="-1"/>
 </g>
 <g>
  <title>Layer 1</title>
  <circle id="svg_1" fill="#F9B300" r="35" cy="35" cx="35"/>
  <g stroke="null" id="svg_6">
   <path stroke="null" id="svg_5" fill="black" d="m33.169918,31.527991c-1.325375,1.297745 -2.982021,1.946558 -4.969995,1.946558c-1.987974,0 -3.658417,-0.662658 -5.011352,-1.987974c-1.325316,-1.325316 -1.987974,-2.940545 -1.987974,-4.845687c0,-1.905142 0.662658,-3.520371 1.987974,-4.845687c1.352935,-1.325316 3.023378,-1.987974 5.011352,-1.987974c1.987974,0 3.64462,0.662658 4.969995,1.987974c1.325316,1.297709 1.987974,2.912939 1.987974,4.845687c0,1.932749 -0.662658,3.561787 -1.987974,4.887104zm-9.028776,13.460243l18.885815,-20.997979l2.526384,1.408148l-18.927231,21.039395l-2.484968,-1.449565zm2.153639,-16.442204c0.496994,0.496994 1.118236,0.74549 1.863726,0.74549c0.74549,0 1.366732,-0.248497 1.863726,-0.74549c0.496994,-0.5246 0.74549,-1.159652 0.74549,-1.905142c0,-0.74549 -0.248497,-1.366732 -0.74549,-1.863726c-0.496994,-0.496994 -1.118236,-0.74549 -1.863726,-0.74549c-0.74549,0 -1.366732,0.248497 -1.863726,0.74549c-0.469375,0.496994 -0.704074,1.118236 -0.704074,1.863726c0,0.74549 0.234699,1.380542 0.704074,1.905142zm20.87379,19.341334c-1.325316,1.325316 -2.981961,1.987974 -4.969936,1.987974c-1.987974,0 -3.64462,-0.662658 -4.969936,-1.987974c-1.325316,-1.325316 -1.987974,-2.940545 -1.987974,-4.845687c0,-1.905142 0.662658,-3.520371 1.987974,-4.845687c1.325316,-1.325316 2.981961,-1.987974 4.969936,-1.987974c1.987974,0 3.64462,0.662658 4.969936,1.987974c1.325316,1.325316 1.987974,2.940545 1.987974,4.845687c0,1.905142 -0.662658,3.520371 -1.987974,4.845687zm-6.833662,-2.940545c0.496994,0.496994 1.118236,0.74549 1.863726,0.74549c0.74549,0 1.352888,-0.262342 1.82231,-0.786907c0.496994,-0.524565 0.74549,-1.145807 0.74549,-1.863726c0,-0.74549 -0.248497,-1.366732 -0.74549,-1.863726c-0.469422,-0.524565 -1.076819,-0.786907 -1.82231,-0.786907c-0.74549,0 -1.366732,0.262342 -1.863726,0.786907c-0.469422,0.496994 -0.704074,1.118236 -0.704074,1.863726c0,0.74549 0.234652,1.380577 0.704074,1.905142z"/>
  </g>
 </g>
</svg>