<svg width="70" height="70" xmlns="http://www.w3.org/2000/svg">

 <g>
  <title>background</title>
  <rect fill="none" id="canvas_background" height="402" width="582" y="-1" x="-1"/>
 </g>
 <g>
  <title>Layer 1</title>
  <circle id="svg_1" fill="#F9B300" r="35" cy="35" cx="35"/>
  <g stroke="null" id="svg_6">
   <path stroke="null" id="svg_5" fill="black" d="m55.72535,24.350625l-2.912056,-3.758223c-0.38996,-0.503238 -0.976467,-0.791842 -1.609368,-0.791842l-2.404753,0c-0.226954,-0.422488 -0.670204,-0.710057 -1.178761,-0.710057l-2.709657,0l-7.907973,-2.661205c-0.186098,-0.062653 -0.376272,-0.108514 -0.569162,-0.138252l0.390796,-1.972307c0.078995,-0.399009 -0.022152,-0.8083 -0.277737,-1.123047c-0.255376,-0.314653 -0.63311,-0.495172 -1.036236,-0.495172l-2.50381,0c-0.403021,0 -0.780651,0.180435 -1.036236,0.495088c-0.255585,0.314664 -0.356836,0.723954 -0.277737,1.123047l0.390691,1.97239c-0.192681,0.029738 -0.382959,0.075599 -0.568953,0.138252l-7.908088,2.661288l-2.709688,0c-0.639808,0 -1.250839,0.308488 -1.634592,0.825175l-1.265865,1.704027c-0.226087,0.304288 -0.261833,0.704749 -0.093383,1.04495c0.168523,0.340285 0.507282,0.551639 0.884066,0.551639l1.050896,0c0.021055,0 0.041013,0.01024 0.053572,0.027377l4.349871,5.965906l0.364318,2.942254c0.040323,0.32528 0.314549,0.56331 0.631062,0.56331c0.026405,0 0.052977,-0.001776 0.0798,-0.00512c0.348864,-0.043991 0.596434,-0.3653 0.552882,-0.717539l-0.378832,-3.059701l0.244509,-8.556464l3.038782,0l1.88606,15.233221c0.022675,0.182859 0.0698,0.357254 0.135943,0.521305l-4.355346,0c-0.033531,0 -0.06189,-0.025287 -0.065965,-0.058828l-0.186694,-1.508012c-0.043635,-0.352448 -0.361256,-0.60239 -0.710872,-0.55819c-0.348853,0.044095 -0.596423,0.3653 -0.552872,0.717643l0.186694,1.508117c0.083718,0.675533 0.655429,1.185031 1.329709,1.185031l0.14892,0l0,3.684243l-0.164113,0c-0.668679,0 -1.22596,0.484524 -1.325216,1.152221l-1.777724,11.964622c-0.088378,0.594553 0.083791,1.196629 0.472299,1.65221c0.388507,0.45558 0.952925,0.716703 1.548241,0.716703l1.554187,0c0.351748,0 0.636757,-0.287872 0.636757,-0.642828c0,-0.35506 -0.285009,-0.642932 -0.636757,-0.642932l-1.554187,0c-0.227612,0 -0.434682,-0.095923 -0.583258,-0.270004c-0.148492,-0.174082 -0.211657,-0.39508 -0.177958,-0.622452l0.098315,-0.661741l19.15724,0l0.098221,0.661741c0.033751,0.227268 -0.029362,0.448266 -0.177948,0.622452c-0.148586,0.174082 -0.355687,0.270004 -0.583268,0.270004l-13.730099,0c-0.351716,0 -0.636663,0.287872 -0.636663,0.642932c0,0.354955 0.284947,0.642828 0.636663,0.642828l13.730099,0c0.595493,0 1.159744,-0.261227 1.548241,-0.716703c0.388602,-0.455476 0.560698,-1.057657 0.472508,-1.652105l-1.777703,-11.964831c-0.099266,-0.667592 -0.656516,-1.152116 -1.325258,-1.152116l-0.164051,0l0,-3.684452l0.148899,0c0.67428,0 1.245949,-0.509393 1.329646,-1.185135l1.17197,-9.464991l2.064426,0c0.264571,0 0.522977,-0.050887 0.768112,-0.151303l1.186807,-0.486091c0.922968,-0.377839 1.979788,-0.076696 2.570371,0.732794c0.384004,0.526425 0.524649,1.194644 0.385676,1.833292l-2.070695,9.513057c-0.006792,0.031034 -0.033437,0.052768 -0.064993,0.052768l-1.797661,0c-0.738855,0 -1.339991,0.606883 -1.339991,1.352843l0,1.419926c0,0.74596 0.601136,1.352948 1.339991,1.352948l3.559481,0c0.949404,0 1.766523,-0.650978 1.987207,-1.583141l3.196375,-13.496876c0.245763,-1.038117 0.013166,-2.115417 -0.638126,-2.955942zm-8.038378,-3.907112l0,1.645647c0,0.378685 -0.268228,0.700716 -0.637917,0.765605l-2.030466,0.356596l0.35088,-2.835046l2.250942,0c0.036676,0 0.066561,0.030083 0.066561,0.067198zm-14.731749,-6.432666c0.019853,-0.024597 0.043573,-0.024597 0.05141,-0.024597l2.50381,0c0.007837,0 0.031556,0 0.051514,0.024597c0.019958,0.024514 0.01536,0.048003 0.013793,0.055715l-0.432697,2.183943l-1.76903,0l-0.432697,-2.183943c-0.001463,-0.007628 -0.00606,-0.031117 0.013897,-0.055715zm-13.11748,7.919739l-0.480616,0l0.923793,-1.243473c0.1445,-0.194656 0.374673,-0.310798 0.615702,-0.310798l3.564121,0l-0.191532,6.702984l-3.352213,-4.597734c-0.251478,-0.345008 -0.654917,-0.55098 -1.079255,-0.55098zm12.079468,-4.281555c0.222148,-0.074836 0.453699,-0.112714 0.688072,-0.112714l3.306613,0c0.234373,0 0.46582,0.037878 0.688072,0.112798l4.283603,1.441472l-13.250016,0l4.283655,-1.441556zm0.006165,17.800927l-1.866311,-15.073643l8.402946,0l-1.866207,15.073643c-0.048066,0.388079 -0.376585,0.680758 -0.763828,0.680758l-3.142772,0c-0.387452,0 -0.715867,-0.292574 -0.763828,-0.680758zm-5.564086,6.993678c0.004922,-0.033019 0.032601,-0.057157 0.065798,-0.057157l4.39079,0c-0.060814,0.149213 -0.106476,0.306367 -0.130927,0.471149l-1.426823,9.603337l-4.387143,0l1.488305,-10.01733zm10.262204,0.604793l1.398506,9.412432l-7.474022,0l1.398506,-9.412537c0.056007,-0.377212 0.383272,-0.661845 0.761216,-0.661845l3.154684,0c0.377839,0 0.705104,0.284633 0.761111,0.66195zm5.536344,-0.604793l1.488263,10.01733l-4.338356,0l-1.426823,-9.603233c-0.024451,-0.164678 -0.070218,-0.322041 -0.131032,-0.471149l4.342013,0c0.033333,-0.000104 0.061023,0.024033 0.065934,0.057052zm-1.503415,-1.342812l-12.791719,0l0,-3.684348l12.791719,0l0,3.684348zm1.488368,-5.028936c-0.00418,0.033542 -0.032497,0.058828 -0.065934,0.058828l-4.355388,0c0.066247,-0.163946 0.113373,-0.338341 0.136047,-0.521305l1.885851,-15.233096l4.342745,0l-1.943321,15.695572zm12.982154,-9.064373l-3.196375,13.496876c-0.08307,0.351194 -0.3909,0.596434 -0.748573,0.596434l-3.559586,0c-0.036676,0 -0.066456,-0.030198 -0.066456,-0.067292l0,-1.419926c0,-0.03699 0.029884,-0.067083 0.066456,-0.067083l1.797661,0c0.624437,0 1.174895,-0.446803 1.308853,-1.062568l2.070591,-9.512848c0.217759,-1.0005 -0.002403,-2.047289 -0.604166,-2.871827c-0.936238,-1.283043 -2.611958,-1.76088 -4.074412,-1.161625l-1.186807,0.486091c-0.09237,0.037826 -0.189651,0.056948 -0.289335,0.056948l-1.905182,0l0.115776,-0.935298l2.413948,-0.423815c0.981065,-0.172305 1.693065,-1.026978 1.693065,-2.032337l0,-1.002861l2.243523,0c0.238448,0 0.459342,0.108765 0.60636,0.29828l2.912056,3.758212c0.410858,0.530082 0.557563,1.209795 0.402603,1.864639z"/>
  </g>
 </g>
</svg>