<svg width="11" height="20" viewBox="0 0 11 20" fill="none" xmlns="http://www.w3.org/2000/svg">
<path d="M1.27479 19.8801L10.8797 10.2764C10.9599 10.1964 11 10.1043 11 10.0001C11 9.89589 10.9599 9.80361 10.8797 9.72351L1.27479 0.120283C1.19449 0.0400101 1.10236 0 0.998093 0C0.893868 0 0.801607 0.0401364 0.72148 0.120283L0.120275 0.721361C0.0401049 0.801508 4.19617e-05 0.893742 4.19617e-05 0.997936C4.19617e-05 1.10213 0.0401049 1.19436 0.120275 1.27451L8.8471 10.0001L0.11998 18.7258C0.0398102 18.8059 0 18.8982 0 19.0022C0 19.1066 0.0400639 19.1988 0.11998 19.2789L0.721439 19.8801C0.801566 19.9602 0.893867 20 0.99805 20C1.10236 20 1.19462 19.9602 1.27479 19.8801Z" fill="black"/>
</svg>
