<svg width="11" height="20" viewBox="0 0 11 20" fill="none" xmlns="http://www.w3.org/2000/svg">
<path d="M9.72521 0.119862L0.120317 9.72355C0.0401479 9.80361 0 9.89572 0 9.99992C0 10.1041 0.0401479 10.1964 0.120317 10.2765L9.72521 19.8797C9.80551 19.96 9.89764 20 10.0019 20C10.1061 20 10.1984 19.9599 10.2785 19.8797L10.8797 19.2786C10.9599 19.1985 11 19.1063 11 19.0021C11 18.8979 10.9599 18.8056 10.8797 18.7255L2.1529 9.99992L10.88 1.27417C10.9602 1.19407 11 1.1018 11 0.997768C11 0.893406 10.9599 0.80117 10.88 0.721066L10.2786 0.119904C10.1984 0.0397987 10.1061 0 10.002 0C9.89764 -4.19617e-05 9.80538 0.0397568 9.72521 0.119862Z" fill="black"/>
</svg>
