<svg width="18" height="14" viewBox="0 0 18 14" fill="none" xmlns="http://www.w3.org/2000/svg">
<path fill-rule="evenodd" clip-rule="evenodd" d="M12.9508 10.6283C12.0497 10.6283 11.3384 11.2789 11.3384 12.1029C11.3384 12.927 12.0497 13.5775 12.9508 13.5775C13.8518 13.5775 14.5632 12.927 14.5632 12.1029C14.5632 11.2789 13.8518 10.6283 12.9508 10.6283ZM12.9508 12.6667C12.6188 12.6667 12.3343 12.4065 12.3343 12.1029C12.3343 11.7559 12.6188 11.4957 12.9508 11.4957C13.3302 11.4957 13.6147 11.7559 13.6147 12.1029C13.6147 12.4065 13.3302 12.6667 12.9508 12.6667Z" fill="white" stroke="white" stroke-width="0.3"/>
<path fill-rule="evenodd" clip-rule="evenodd" d="M16.4125 3.47214H4.69901L4.12993 1.43371C4.08251 1.17348 3.84539 1 3.56085 1H1.56908C0.810307 1 0.810307 2.08427 1.56908 2.08427H3.08662L5.03097 9.54405C5.12582 9.80428 5.36293 9.97776 5.64747 9.97776H14.9424C15.227 9.97776 15.4641 9.80428 15.5115 9.54405L16.9816 4.16607C17.0765 3.8191 16.7919 3.47214 16.4125 3.47214ZM14.4682 8.85012H6.07428L4.98355 4.59978H15.6538L14.4682 8.85012Z" fill="white" stroke="white" stroke-width="0.3"/>
<path fill-rule="evenodd" clip-rule="evenodd" d="M7.06991 10.6283C6.16887 10.6283 5.45752 11.2789 5.45752 12.1029C5.45752 12.927 6.16887 13.5775 7.06991 13.5775C7.97095 13.5775 8.6823 12.927 8.6823 12.1029C8.6823 11.2789 7.97095 10.6283 7.06991 10.6283ZM7.06991 12.6667C6.73795 12.6667 6.45341 12.4065 6.45341 12.1029C6.45341 11.7559 6.73795 11.4957 7.06991 11.4957C7.44929 11.4957 7.73383 11.7559 7.73383 12.1029C7.73383 12.4065 7.44929 12.6667 7.06991 12.6667Z" fill="white" stroke="white" stroke-width="0.3"/>
</svg>
