<svg width="17" height="14" viewBox="0 0 17 14" fill="none" xmlns="http://www.w3.org/2000/svg">
<path fill-rule="evenodd" clip-rule="evenodd" d="M12.6974 10.7172C11.7401 10.7172 10.9843 11.4414 10.9843 12.3586C10.9843 13.2759 11.7401 14 12.6974 14C13.6548 14 14.4106 13.2759 14.4106 12.3586C14.4106 11.4414 13.6548 10.7172 12.6974 10.7172ZM12.6974 12.9862C12.3447 12.9862 12.0424 12.6966 12.0424 12.3586C12.0424 11.9724 12.3447 11.6828 12.6974 11.6828C13.1005 11.6828 13.4028 11.9724 13.4028 12.3586C13.4028 12.6966 13.1005 12.9862 12.6974 12.9862Z" fill="#333333"/>
<path fill-rule="evenodd" clip-rule="evenodd" d="M16.3758 2.75172H3.9302L3.32555 0.482758C3.27516 0.193103 3.02323 0 2.72091 0H0.604646C-0.201549 0 -0.201549 1.20689 0.604646 1.20689H2.21703L4.28291 9.51033C4.38368 9.79998 4.63562 9.99308 4.93794 9.99308H14.8138C15.1161 9.99308 15.3681 9.79998 15.4185 9.51033L16.9805 3.52413C17.0812 3.13792 16.7789 2.75172 16.3758 2.75172ZM14.3099 8.73791H5.39143L4.23252 4.00689H15.5696L14.3099 8.73791Z" fill="#333333"/>
<path fill-rule="evenodd" clip-rule="evenodd" d="M6.44928 10.7172C5.49193 10.7172 4.73612 11.4414 4.73612 12.3586C4.73612 13.2759 5.49193 14 6.44928 14C7.40664 14 8.16245 13.2759 8.16245 12.3586C8.16245 11.4414 7.40664 10.7172 6.44928 10.7172ZM6.44928 12.9862C6.09657 12.9862 5.79425 12.6966 5.79425 12.3586C5.79425 11.9724 6.09657 11.6828 6.44928 11.6828C6.85238 11.6828 7.1547 11.9724 7.1547 12.3586C7.1547 12.6966 6.85238 12.9862 6.44928 12.9862Z" fill="#333333"/>
</svg>
