<svg width="12" height="14" viewBox="0 0 12 14" fill="none" xmlns="http://www.w3.org/2000/svg">
<path d="M2.62076 5.39284L2.69341 5.54149C2.70421 5.53621 2.7187 5.53103 2.73955 5.52577L3.05574 5.44594L2.84124 5.2003C2.38079 4.67303 2.10876 4.01491 2.10876 3.30342C2.10876 1.61277 3.65508 0.2 5.60337 0.2C7.55167 0.2 9.09797 1.61277 9.09781 3.3034V3.30342C9.09781 4.01493 8.82594 4.67291 8.36565 5.20018L8.14991 5.44732L8.46843 5.52588C8.48885 5.53092 8.50336 5.53609 8.51456 5.54156C10.0615 6.30629 11.0078 7.74725 11.0078 9.29161V13.3199C11.0078 13.3878 10.9387 13.4798 10.8052 13.4798H0.40256C0.269021 13.4798 0.2 13.3878 0.2 13.3199V9.29161C0.2 7.74403 1.14679 6.30313 2.69395 5.54122L2.62084 5.39277L2.69059 5.33186L2.64163 5.13794C2.6151 5.14464 2.58546 5.15342 2.55459 5.16579C2.14761 4.63523 1.90876 3.99395 1.90876 3.30342C1.90876 1.48185 3.56626 0 5.60337 0C7.64048 0 9.29798 1.48185 9.29781 3.30342L2.62076 5.39284ZM10.4025 13.16H10.6025V12.96V9.29176C10.6025 7.93824 9.82898 6.69157 8.58314 5.96442L8.45726 5.89095L8.34877 5.98828C7.62707 6.63573 6.64434 7.0051 5.60388 7.0051C5.07588 7.0051 4.63246 6.94207 4.20215 6.78585C3.77098 6.62932 3.34255 6.37544 2.84957 5.98086L2.74249 5.89515L2.62397 5.96416C1.37815 6.68944 0.60529 7.93594 0.60529 9.29161V12.96V13.16H0.80529H10.4025ZM8.69269 3.30342C8.69269 1.74795 7.28543 0.520024 5.60337 0.520024C3.92131 0.520024 2.51405 1.74795 2.51405 3.30342C2.51405 4.85889 3.92149 6.08681 5.60337 6.08681C7.28543 6.08681 8.69269 4.85888 8.69269 3.30342Z" fill="#333333" stroke="#333333" stroke-width="0.4"/>
</svg>
