<svg width="15" height="13.499999999999998" xmlns="http://www.w3.org/2000/svg" fill="none">

 <g>
  <title>Layer 1</title>
  <path id="svg_1" fill="#A1A1A1" d="m13.22323,12.75128l-11.25,0l0,0.6l11.25,0l0,-0.6z"/>
  <path id="svg_2" fill="#A1A1A1" d="m4.31698,8.50868c0,-0.0795 -0.02461,-0.1557 -0.06867,-0.2121c-0.04383,-0.0564 -0.1036,-0.0879 -0.1657,-0.0879c-0.36024,0 -1.04602,0 -1.40626,0c-0.0621,0 -0.12187,0.0315 -0.1657,0.0879c-0.04406,0.0564 -0.06867,0.1326 -0.06867,0.2121c0,1.0734 0,4.6584 0,4.6584l1.875,0l0,-4.6584z" clip-rule="evenodd" fill-rule="evenodd"/>
  <path id="svg_3" fill="#A1A1A1" d="m7.12948,2.93047c0,-0.1656 -0.105,-0.3 -0.23437,-0.3c-0.36024,0 -1.04602,0 -1.40626,0c-0.12937,0 -0.23437,0.1344 -0.23437,0.3c0,1.7184 0,10.23661 0,10.23661l1.875,0l0,-10.23661z" clip-rule="evenodd" fill-rule="evenodd"/>
  <path id="svg_4" fill="#A1A1A1" d="m9.94198,5.40965c0,-0.1656 -0.105,-0.3 -0.23437,-0.3l-1.40626,0c-0.12937,0 -0.23437,0.1344 -0.23437,0.3c0,1.4607 0,7.75743 0,7.75743l1.875,0l0,-7.75743z" clip-rule="evenodd" fill-rule="evenodd"/>
  <path id="svg_5" fill="#A1A1A1" d="m12.75443,0.45128c0,-0.0795 -0.0246,-0.156 -0.0686,-0.2121c-0.0438,-0.0564 -0.1036,-0.0879 -0.1657,-0.0879c-0.3603,0 -1.046,0 -1.4063,0c-0.0621,0 -0.1219,0.0315 -0.1657,0.0879c-0.044,0.0561 -0.0687,0.1326 -0.0687,0.2121c0,1.9473 0,12.7158 0,12.7158l1.875,0l0,-12.7158z" clip-rule="evenodd" fill-rule="evenodd"/>
 </g>
</svg>