<svg width="11" height="13" viewBox="0 0 11 13" fill="none" xmlns="http://www.w3.org/2000/svg">
<path d="M11 12.4091H0V13H11V12.4091Z" fill="#333333"/>
<path fill-rule="evenodd" clip-rule="evenodd" d="M2.29167 8.23076C2.29167 8.15247 2.2676 8.07742 2.22452 8.02188C2.18167 7.96633 2.12323 7.93531 2.0625 7.93531C1.71027 7.93531 1.03973 7.93531 0.6875 7.93531C0.626771 7.93531 0.568333 7.96633 0.525479 8.02188C0.482396 8.07742 0.458333 8.15247 0.458333 8.23076C0.458333 9.28789 0.458333 12.8186 0.458333 12.8186H2.29167V8.23076Z" fill="#333333"/>
<path fill-rule="evenodd" clip-rule="evenodd" d="M5.04167 2.73702C5.04167 2.57393 4.939 2.44157 4.8125 2.44157C4.46027 2.44157 3.78973 2.44157 3.4375 2.44157C3.311 2.44157 3.20833 2.57393 3.20833 2.73702C3.20833 4.42938 3.20833 12.8185 3.20833 12.8185H5.04167V2.73702Z" fill="#333333"/>
<path fill-rule="evenodd" clip-rule="evenodd" d="M7.79167 5.17871C7.79167 5.01562 7.689 4.88326 7.5625 4.88326H6.1875C6.061 4.88326 5.95833 5.01562 5.95833 5.17871C5.95833 6.61727 5.95833 12.8186 5.95833 12.8186H7.79167V5.17871Z" fill="#333333"/>
<path fill-rule="evenodd" clip-rule="evenodd" d="M10.5417 0.295454C10.5417 0.217158 10.5176 0.141818 10.4745 0.086568C10.4317 0.0310227 10.3732 0 10.3125 0C9.96027 0 9.28973 0 8.9375 0C8.87677 0 8.81833 0.0310227 8.77548 0.086568C8.7324 0.141818 8.70833 0.217158 8.70833 0.295454C8.70833 2.21324 8.70833 12.8186 8.70833 12.8186H10.5417V0.295454Z" fill="#333333"/>
</svg>
