<svg width="15" height="24" viewBox="0 0 15 24" fill="none" xmlns="http://www.w3.org/2000/svg">
<path d="M13.125 15.6H1.875V16.2H13.125V15.6Z" fill="#A1A1A1"/>
<path fill-rule="evenodd" clip-rule="evenodd" d="M4.21875 11.3574C4.21875 11.2779 4.19414 11.2017 4.15008 11.1453C4.10625 11.0889 4.04648 11.0574 3.98438 11.0574C3.62414 11.0574 2.93836 11.0574 2.57812 11.0574C2.51602 11.0574 2.45625 11.0889 2.41242 11.1453C2.36836 11.2017 2.34375 11.2779 2.34375 11.3574C2.34375 12.4308 2.34375 16.0158 2.34375 16.0158H4.21875V11.3574Z" fill="#A1A1A1"/>
<path fill-rule="evenodd" clip-rule="evenodd" d="M7.03125 5.77919C7.03125 5.61359 6.92625 5.47919 6.79688 5.47919C6.43664 5.47919 5.75086 5.47919 5.39062 5.47919C5.26125 5.47919 5.15625 5.61359 5.15625 5.77919C5.15625 7.49759 5.15625 16.0158 5.15625 16.0158H7.03125V5.77919Z" fill="#A1A1A1"/>
<path fill-rule="evenodd" clip-rule="evenodd" d="M9.84375 8.25837C9.84375 8.09277 9.73875 7.95837 9.60938 7.95837H8.20312C8.07375 7.95837 7.96875 8.09277 7.96875 8.25837C7.96875 9.71907 7.96875 16.0158 7.96875 16.0158H9.84375V8.25837Z" fill="#A1A1A1"/>
<path fill-rule="evenodd" clip-rule="evenodd" d="M12.6562 3.3C12.6562 3.2205 12.6316 3.144 12.5876 3.0879C12.5438 3.0315 12.484 3 12.4219 3C12.0616 3 11.3759 3 11.0156 3C10.9535 3 10.8937 3.0315 10.8499 3.0879C10.8059 3.144 10.7812 3.2205 10.7812 3.3C10.7812 5.2473 10.7812 16.0158 10.7812 16.0158H12.6562V3.3Z" fill="#A1A1A1"/>
</svg>
