<svg width="15" height="12" viewBox="0 0 15 12" fill="none" xmlns="http://www.w3.org/2000/svg">
<path d="M7.54945 12C7.18582 12 6.8538 11.8691 6.58503 11.6364L1.20956 6.6909C0.118659 5.68727 -0.27659 4.21818 0.197716 2.89455C0.830123 1.13455 2.47438 0 4.40322 0C5.57318 0 6.66408 0.421818 7.4704 1.16364L7.53364 1.22182L7.59688 1.16364C8.41901 0.407272 9.50992 0 10.6641 0C11.834 0 12.9249 0.421818 13.7312 1.16364C15.4229 2.72 15.4229 5.26545 13.7312 6.82182L8.48225 11.6509C8.26091 11.8691 7.91309 12 7.54945 12ZM4.41904 1.38182C3.40719 1.38182 2.15818 1.89091 1.63644 3.33091C1.33605 4.16 1.58901 5.0909 2.26885 5.71636L7.53364 10.56L12.6719 5.83273C13.2095 5.33818 13.4941 4.68364 13.4941 3.98546C13.4941 3.28727 13.1937 2.63273 12.6719 2.13818C12.1344 1.64364 11.4229 1.38182 10.6641 1.38182C9.90517 1.38182 9.19371 1.65818 8.65617 2.13818L8.05538 2.67637C7.75499 2.95273 7.28067 2.95273 6.98028 2.67637L6.39531 2.13818C5.88939 1.64364 5.17793 1.38182 4.41904 1.38182Z" fill="#333333"/>
</svg>
