<svg width="15" height="13" viewBox="0 0 15 13" fill="none" xmlns="http://www.w3.org/2000/svg">
<path d="M7.54945 13C7.18582 13 6.8538 12.8582 6.58503 12.6061L1.20956 7.24848C0.118659 6.16121 -0.27659 4.5697 0.197716 3.13576C0.830123 1.22909 2.47438 0 4.40322 0C5.57318 0 6.66408 0.456969 7.4704 1.26061L7.53364 1.32364L7.59688 1.26061C8.41901 0.441212 9.50992 0 10.6641 0C11.834 0 12.9249 0.456969 13.7312 1.26061C15.4229 2.94666 15.4229 5.70424 13.7312 7.3903L8.48225 12.6218C8.26091 12.8582 7.91309 13 7.54945 13ZM4.41904 1.49697C3.40719 1.49697 2.15818 2.04849 1.63644 3.60849C1.33605 4.50667 1.58901 5.51515 2.26885 6.19272L7.53364 11.44L12.6719 6.31879C13.2095 5.78303 13.4941 5.07394 13.4941 4.31758C13.4941 3.56121 13.1937 2.85212 12.6719 2.31636C12.1344 1.78061 11.4229 1.49697 10.6641 1.49697C9.90517 1.49697 9.19371 1.79636 8.65617 2.31636L8.05538 2.8994C7.75499 3.19879 7.28067 3.19879 6.98028 2.8994L6.39531 2.31636C5.88939 1.78061 5.17793 1.49697 4.41904 1.49697Z" fill="#A1A1A1"/>
</svg>
