<svg width="9" height="12" viewBox="0 0 9 12" fill="none" xmlns="http://www.w3.org/2000/svg">
<path d="M4.48589 0C2.00313 0 0 1.80632 0 4.01684C0 5.41895 1.73511 8.74105 3.20219 11.2926C3.45611 11.7347 3.94984 12 4.5 12C5.05016 12 5.54389 11.7347 5.79781 11.2926C7.25078 8.75368 9 5.43158 9 4.01684C8.97179 1.80632 6.96865 0 4.48589 0ZM4.83856 10.8632C4.73981 11.04 4.55643 11.0653 4.48589 11.0653C4.41536 11.0653 4.23198 11.04 4.13323 10.8632C2.17241 7.45263 1.05799 4.96421 1.05799 4.02947C1.04389 2.32421 2.59561 0.947368 4.48589 0.947368C6.37618 0.947368 7.9279 2.32421 7.9279 4.02947C7.9279 4.95158 6.79937 7.45263 4.83856 10.8632Z" fill="white"/>
<path d="M4.48588 5.70946C5.52985 5.70946 6.37616 4.95164 6.37616 4.01683C6.37616 3.08202 5.52985 2.3242 4.48588 2.3242C3.44191 2.3242 2.5956 3.08202 2.5956 4.01683C2.5956 4.95164 3.44191 5.70946 4.48588 5.70946Z" fill="white"/>
</svg>
