<svg width="11" height="13" viewBox="0 0 11 13" fill="none" xmlns="http://www.w3.org/2000/svg">
<path d="M8.13002 12.2315L7.69257 12.1656L7.56899 12.1219C7.47169 12.0873 7.36844 12.052 7.27079 12.0106C6.71111 11.7727 6.16557 11.399 5.55273 10.8371C4.80132 10.147 4.07745 9.29711 3.27458 8.16144C2.64107 7.29157 2.08419 6.35528 1.61188 5.36593C1.21286 4.50805 0.990998 3.81618 0.892467 3.10825C0.872052 2.96566 0.862458 2.82567 0.853425 2.69026C0.848987 2.63215 0.845326 2.5764 0.840995 2.51718L0.84083 2.44612L0.879191 2.04986L0.909284 1.98852C1.13003 1.53795 1.4605 1.24314 1.78177 0.980927C2.01591 0.787012 2.26004 0.614742 2.48886 0.455064C2.62611 0.356385 2.78266 0.295958 2.94564 0.278755C3.10863 0.261552 3.27338 0.288063 3.42636 0.356109C3.62611 0.438359 3.79049 0.604086 3.88482 0.818319L4.11251 1.31478C4.34965 1.83844 4.59422 2.3789 4.84538 2.90333C4.94183 3.09418 4.9897 3.31061 4.98368 3.52869C4.97767 3.74678 4.918 3.95805 4.81129 4.13913C4.74603 4.26226 4.67379 4.37429 4.60386 4.48325L4.51481 4.62346C4.4484 4.72726 4.38299 4.83119 4.31459 4.93472L4.47711 5.21038C4.62345 5.45566 4.77513 5.71858 4.93304 5.95867C5.36521 6.62924 5.84508 7.25973 6.36785 7.84384C6.59171 7.73537 6.82561 7.62712 7.08124 7.51278C7.33873 7.38085 7.63233 7.36369 7.9031 7.46475C7.99892 7.50318 8.08812 7.56027 8.16656 7.63338C8.73793 8.16985 9.30747 8.70794 9.87517 9.24767C10.1719 9.53018 10.2528 10.035 10.0741 10.4777C10.0332 10.5838 9.97753 10.6817 9.90916 10.7678C9.54145 11.2308 9.11736 11.6331 8.64913 11.9633C8.54759 12.0297 8.44112 12.0862 8.33084 12.1323C8.29083 12.1506 8.25192 12.1679 8.2129 12.1863L8.13002 12.2315ZM7.85239 11.4712L8.02922 11.495L8.08599 11.47C8.16359 11.4381 8.2387 11.3992 8.31061 11.3537C8.72856 11.0554 9.10679 10.6928 9.43441 10.2763C9.45708 10.2444 9.47544 10.2089 9.4889 10.1709C9.51844 10.1124 9.53177 10.0452 9.5272 9.97775C9.52262 9.9103 9.50035 9.84565 9.46319 9.79196C8.89607 9.25306 8.32775 8.71625 7.75823 8.18154C7.73862 8.16368 7.7165 8.14964 7.6928 8.14C7.56908 8.09878 7.43659 8.11152 7.32201 8.17564C7.03915 8.30096 6.78508 8.42002 6.54513 8.53872C6.45614 8.58812 6.35505 8.60409 6.25666 8.58431C6.15826 8.56454 6.0677 8.51004 5.99822 8.4288C5.42131 7.79688 4.89375 7.11067 4.42145 6.37786C4.25203 6.12157 4.09571 5.85464 3.94459 5.5963C3.86395 5.4625 3.7822 5.32968 3.70642 5.19767C3.65009 5.11013 3.62127 5.0043 3.62454 4.89705C3.62781 4.7898 3.66299 4.68729 3.72446 4.60584C3.81695 4.47173 3.9037 4.33459 3.99034 4.19857L4.0828 4.05431C4.14822 3.95038 4.20836 3.85927 4.2589 3.76348C4.30874 3.68879 4.33742 3.59886 4.34129 3.50518C4.34516 3.4115 4.32404 3.31832 4.28063 3.23755C4.03012 2.70644 3.78101 2.16085 3.54111 1.63456L3.32004 1.14238C3.30926 1.1165 3.29381 1.09337 3.27466 1.07447C3.25552 1.05558 3.23312 1.04133 3.20889 1.03265C3.14836 1.00299 3.08241 0.990453 3.0169 0.996165C2.95139 1.00188 2.88834 1.02566 2.83335 1.06539C2.6171 1.22 2.38068 1.38542 2.16316 1.56354C1.90532 1.77342 1.66118 1.98742 1.50208 2.27942L1.48118 2.49536C1.48548 2.54443 1.4888 2.59336 1.49211 2.6423C1.5009 2.76978 1.50946 2.88934 1.5255 3.00427C1.61225 3.62604 1.81421 4.25321 2.17907 5.03769C2.63239 5.98629 3.1667 6.88402 3.77441 7.7181C4.55171 8.81649 5.24127 9.62564 5.95564 10.2825C6.50999 10.7938 7.00082 11.1295 7.4918 11.339C7.57685 11.3753 7.66454 11.4052 7.75222 11.4351L7.85239 11.4712Z" fill="white" stroke="white" stroke-width="0.2"/>
</svg>
