<svg width="12" height="12" viewBox="0 0 12 12" fill="none" xmlns="http://www.w3.org/2000/svg">
<path d="M4.98666 8.99666C5.92077 8.99666 6.78816 8.67947 7.50542 8.11185L10.2744 10.8831C10.3578 10.9666 10.4579 11 10.5746 11C10.6914 11 10.7915 10.9666 10.8749 10.8831C11.0417 10.7162 11.0417 10.4491 10.8749 10.2988L8.08924 7.51085C8.67306 6.79299 8.97331 5.92487 8.97331 4.98998C8.97331 3.92154 8.5563 2.91987 7.80567 2.16861C7.05505 1.41736 6.05421 1 4.98666 1C3.9191 1 2.91827 1.41736 2.16764 2.16861C1.41701 2.91987 1 3.92154 1 4.98998C1 6.05843 1.41701 7.0601 2.16764 7.81135C2.91827 8.5793 3.9191 8.99666 4.98666 8.99666ZM2.75146 2.75292C3.35196 2.15192 4.15263 1.81803 4.98666 1.81803C5.83736 1.81803 6.62135 2.15192 7.22185 2.75292C7.82235 3.35392 8.15596 4.13856 8.15596 4.98998C8.15596 5.8414 7.82235 6.62604 7.22185 7.22705C6.62135 7.82805 5.83736 8.16194 4.98666 8.16194C4.13595 8.16194 3.35196 7.82805 2.75146 7.22705C2.15096 6.62604 1.83403 5.8414 1.83403 4.98998C1.83403 4.13856 2.15096 3.35392 2.75146 2.75292Z" fill="white" stroke="white" stroke-width="0.4"/>
</svg>
