<svg width="14" height="14" viewBox="0 0 14 14" fill="none" xmlns="http://www.w3.org/2000/svg">
<path d="M7 0C3.14017 0 0 3.03189 0 6.75862C0 10.4854 3.14017 13.5172 7 13.5172C10.8598 13.5172 14 10.4854 14 6.75862C14 3.03189 10.8598 0 7 0ZM7 12.0792C3.9614 12.0792 1.48936 9.69244 1.48936 6.75862C1.48936 3.8248 3.9614 1.438 7 1.438C10.0386 1.438 12.5106 3.8248 12.5106 6.75862C12.5106 9.69244 10.0386 12.0792 7 12.0792ZM6.25532 6.45247L3.92715 8.61307L4.95928 9.64973L7.74468 7.06477V2.27694H6.25532V6.45247Z" fill="#333333"/>
</svg>
