<svg width="126.00000000000001" height="24" xmlns="http://www.w3.org/2000/svg">

 <g>
  <title>background</title>
  <rect fill="none" id="canvas_background" height="26" width="128" y="-1" x="-1"/>
 </g>
 <g>
  <title>Layer 1</title>
  <path id="svg_1" fill="#505050" d="m1.04723,20.2866c-2.30508,-4.064 -0.73653,-10.43796 4.03206,-15.2069c5.41521,-5.413378 12.90291,-6.70395 16.72591,-2.8825c0.0045,0.005 0.0082,0.01067 0.0144,0.01575c-0.7651,2.22555 -3.2016,6.96092 -10.5051,9.52105c-6.69028,2.3465 -9.27107,6.0772 -10.26727,8.5526zm21.83327,-16.6982c-0.5795,1.35152 -1.5881,3.11775 -3.3258,4.85499c-1.7467,1.74711 -4.2293,3.46301 -7.7458,4.69621c-7.13697,2.5022 -9.13106,6.5984 -9.68743,8.5834c0.02628,0.0265 0.04888,0.054 0.07443,0.0797c3.8226,3.8216 11.3106,2.5311 16.7255,-2.8832c4.8182,-4.8173 6.3677,-11.27388 3.9591,-15.3311z"/>
  <path id="svg_2" fill="#505050" d="m35.0472,20.2866c-2.305,-4.064 -0.7365,-10.43796 4.0321,-15.2069c5.4152,-5.413378 12.9029,-6.70395 16.7259,-2.8825c0.0045,0.005 0.0082,0.01067 0.0144,0.01575c-0.7651,2.22555 -3.2016,6.96092 -10.5051,9.52105c-6.6903,2.3465 -9.2711,6.0772 -10.2673,8.5526zm21.8333,-16.6982c-0.5795,1.35152 -1.5881,3.11775 -3.3258,4.85499c-1.7467,1.74711 -4.2293,3.46301 -7.7458,4.69621c-7.137,2.5022 -9.1311,6.5984 -9.6874,8.5834c0.0263,0.0265 0.0489,0.054 0.0744,0.0797c3.8226,3.8216 11.3106,2.5311 16.7255,-2.8832c4.8182,-4.8173 6.3677,-11.27388 3.9591,-15.3311z"/>
  <path id="svg_3" fill="#505050" d="m69.0472,20.2866c-2.305,-4.064 -0.7365,-10.43796 4.0321,-15.2069c5.4152,-5.413378 12.9029,-6.70395 16.7259,-2.8825c0.0045,0.005 0.0082,0.01067 0.0144,0.01575c-0.7651,2.22555 -3.2016,6.96092 -10.5051,9.52105c-6.6903,2.3465 -9.2711,6.0772 -10.2673,8.5526zm21.8333,-16.6982c-0.5795,1.35152 -1.5881,3.11775 -3.3258,4.85499c-1.7467,1.74711 -4.2293,3.46301 -7.7458,4.69621c-7.137,2.5022 -9.1311,6.5984 -9.6874,8.5834c0.0263,0.0265 0.0489,0.054 0.0744,0.0797c3.8226,3.8216 11.3106,2.5311 16.7255,-2.8832c4.8182,-4.8173 6.3677,-11.27388 3.9591,-15.3311z"/>
  <path id="svg_4" fill="#505050" d="m103.047,20.2866c-2.305,-4.064 -0.736,-10.43796 4.032,-15.2069c5.416,-5.413378 12.903,-6.70395 16.726,-2.8825c0.005,0.005 0.008,0.01067 0.015,0.01575c-0.766,2.22555 -3.202,6.96092 -10.505,9.52105c-6.691,2.3465 -9.272,6.0772 -10.268,8.5526zm21.833,-16.6982c-0.579,1.35152 -1.588,3.11775 -3.325,4.85499c-1.747,1.74711 -4.23,3.46301 -7.746,4.69621c-7.137,2.5022 -9.131,6.5984 -9.688,8.5834c0.027,0.0265 0.049,0.054 0.075,0.0797c3.823,3.8216 11.311,2.5311 16.725,-2.8832c4.819,-4.8173 6.368,-11.27388 3.959,-15.3311z"/>
  <path id="svg_5" fill="#505050" d="m137.047,20.2866c-2.305,-4.064 -0.736,-10.43796 4.032,-15.2069c5.416,-5.413378 12.903,-6.70395 16.726,-2.8825c0.005,0.005 0.008,0.01067 0.015,0.01575c-0.766,2.22555 -3.202,6.96092 -10.505,9.52105c-6.691,2.3465 -9.272,6.0772 -10.268,8.5526zm21.833,-16.6982c-0.579,1.35152 -1.588,3.11775 -3.325,4.85499c-1.747,1.74711 -4.23,3.46301 -7.746,4.69621c-7.137,2.5022 -9.131,6.5984 -9.688,8.5834c0.027,0.0265 0.049,0.054 0.075,0.0797c3.823,3.8216 11.311,2.5311 16.725,-2.8832c4.819,-4.8173 6.368,-11.27388 3.959,-15.3311z"/>
 </g>
</svg>