<svg width="13" height="19" viewBox="0 0 13 19" fill="none" xmlns="http://www.w3.org/2000/svg">
<path d="M6.50009 0C3.00795 0 0.166748 2.84121 0.166748 6.33335C0.166748 7.38169 0.428851 8.42112 0.927119 9.34306L6.15375 18.7959C6.22333 18.9219 6.35592 19 6.50009 19C6.64426 19 6.77685 18.9219 6.84644 18.7959L12.075 9.33995C12.5713 8.42112 12.8334 7.38165 12.8334 6.33331C12.8334 2.84121 9.99223 0 6.50009 0ZM6.50009 9.5C4.75402 9.5 3.33344 8.07942 3.33344 6.33335C3.33344 4.58728 4.75402 3.16669 6.50009 3.16669C8.24616 3.16669 9.66675 4.58728 9.66675 6.33335C9.66675 8.07942 8.24616 9.5 6.50009 9.5Z" fill="white"/>
</svg>
